<svg xmlns="http://www.w3.org/2000/svg" viewBox="0 0 237.86 118.93"><g id="Layer_2" data-name="Layer 2"><g id="Layer_1-2" data-name="Layer 1"><path id="Path_196" data-name="Path 196" d="M237.86,0A118.93,118.93,0,0,1,118.93,118.93,118.93,118.93,0,0,1,0,0H0" style="fill:#523931"/><g id="Group_81" data-name="Group 81"><path id="Path_69" data-name="Path 69" d="M92.15,70.08a8.33,8.33,0,0,1,1.57.14,5,5,0,0,1,1.36.41,2.73,2.73,0,0,1,.93.76,1.88,1.88,0,0,1,.36,1.16,1.59,1.59,0,0,1-.51,1.27,3.7,3.7,0,0,1-1.22.69h0a3.35,3.35,0,0,1,1.4.78,2,2,0,0,1,.57,1.54,2.1,2.1,0,0,1-.91,1.76,3.18,3.18,0,0,1-1.1.52,5.67,5.67,0,0,1-1.48.19H86.66V79c.33,0,.49-.11.49-.31v-8c0-.21-.16-.31-.49-.31v-.32Zm.35,3.63a3.45,3.45,0,0,0,1.31-.2,1,1,0,0,0,.41-1.3,1,1,0,0,0-.41-.41,3.66,3.66,0,0,0-1.31-.2H89.14v2.11Zm0,4a2.86,2.86,0,0,0,1.59-.35,1,1,0,0,0,.49-.9,1.09,1.09,0,0,0-.49-.91,2.94,2.94,0,0,0-1.59-.34H89.14v2.5Z" style="fill:#fff"/><path id="Path_70" data-name="Path 70" d="M99.2,79c.31,0,.46-.11.46-.31v-8c0-.22-.15-.32-.46-.32v-.32h2.93v.32c-.31,0-.46.1-.46.32v8c0,.2.15.31.46.31v.32H99.2Z" style="fill:#fff"/><path id="Path_71" data-name="Path 71" d="M106.15,76.44l.18.09a.45.45,0,0,0,.07.28,1.19,1.19,0,0,0,.48.41,5.13,5.13,0,0,0,.83.37,8.28,8.28,0,0,0,1,.25,4.71,4.71,0,0,0,.92.1,6.74,6.74,0,0,0,.77,0,4.27,4.27,0,0,0,.93-.19,2.43,2.43,0,0,0,.79-.39.75.75,0,0,0,.34-.68.69.69,0,0,0-.31-.6,2.3,2.3,0,0,0-.81-.28,8.78,8.78,0,0,0-1.15-.11l-1.3-.08c-.45,0-.88-.1-1.32-.18A3.68,3.68,0,0,1,106.4,75a2.19,2.19,0,0,1-1.11-2.11,2.34,2.34,0,0,1,.25-1.07,2.45,2.45,0,0,1,.79-.93,4.16,4.16,0,0,1,1.36-.69,6.13,6.13,0,0,1,1.9-.25,7.94,7.94,0,0,1,1.62.14c.46.1.86.2,1.19.3a7.35,7.35,0,0,1,.85.3,1.59,1.59,0,0,0,.57.14.49.49,0,0,0,.35-.11l.22.14L113.17,73,113,73a.91.91,0,0,0-.14-.4,1.42,1.42,0,0,0-.46-.42,4.49,4.49,0,0,0-.77-.36,6.37,6.37,0,0,0-1-.26,5.89,5.89,0,0,0-1-.1,5.39,5.39,0,0,0-.8.06,3.83,3.83,0,0,0-.74.19,1.51,1.51,0,0,0-.56.33.67.67,0,0,0-.22.5.71.71,0,0,0,.31.63,2.18,2.18,0,0,0,.81.32,7.39,7.39,0,0,0,1.14.14c.43,0,.87.06,1.32.09a11.48,11.48,0,0,1,1.31.19,3.81,3.81,0,0,1,1.14.42,2.45,2.45,0,0,1,.82.78,2.42,2.42,0,0,1,.31,1.29,2.28,2.28,0,0,1-.49,1.5,3.64,3.64,0,0,1-1.21.92,5.67,5.67,0,0,1-1.56.44,13.31,13.31,0,0,1-1.56.12,10.55,10.55,0,0,1-1.68-.12,6.43,6.43,0,0,1-1.13-.28c-.23-.09-.46-.19-.68-.3a1.1,1.1,0,0,0-.46-.13.3.3,0,0,0-.23.14l-.25-.14Z" style="fill:#fff"/><path id="Path_72" data-name="Path 72" d="M122.37,78.72c0,.2.13.31.38.31v.32H120V79a.35.35,0,0,0,.22-.08.25.25,0,0,0,.1-.23v-7h-2.9a.59.59,0,0,0-.31.09.39.39,0,0,0-.15.34h-.32V69.65H117a.34.34,0,0,0,.15.34.59.59,0,0,0,.31.09h7.83a.55.55,0,0,0,.3-.09.36.36,0,0,0,.15-.34H126v2.48h-.32a.38.38,0,0,0-.15-.34.55.55,0,0,0-.3-.09h-2.91Z" style="fill:#fff"/><path id="Path_73" data-name="Path 73" d="M134.5,70.08a7.78,7.78,0,0,1,1.53.15,3.58,3.58,0,0,1,1.18.48,2.19,2.19,0,0,1,.76.84,2.7,2.7,0,0,1,.26,1.28,2.23,2.23,0,0,1-.68,1.78,3.76,3.76,0,0,1-1.85.83L138,78.79a.51.51,0,0,0,.29.21l.31,0v.32h-3.3V79a.87.87,0,0,0,.28,0c.07,0,.11-.08.11-.14a.37.37,0,0,0-.07-.2l-.21-.31-1.94-2.74H131v3.13a.25.25,0,0,0,.12.23.65.65,0,0,0,.41.08v.32h-3.05V79c.34,0,.51-.11.51-.31v-8c0-.21-.17-.32-.51-.32v-.32ZM134,74.19a5.36,5.36,0,0,0,1.06-.1,2.1,2.1,0,0,0,.68-.27,1.1,1.1,0,0,0,.35-.42,1.28,1.28,0,0,0,0-1,1,1,0,0,0-.35-.41,1.73,1.73,0,0,0-.68-.27,4.19,4.19,0,0,0-1.06-.1h-3v2.6Z" style="fill:#fff"/><path id="Path_74" data-name="Path 74" d="M146.49,70a7.27,7.27,0,0,1,2,.28,6.24,6.24,0,0,1,1.84.88,4.93,4.93,0,0,1,1.37,1.47,4.48,4.48,0,0,1,0,4.21,4.93,4.93,0,0,1-1.37,1.47,5.71,5.71,0,0,1-1.84.85,7.56,7.56,0,0,1-4,0,5.61,5.61,0,0,1-1.82-.85,4.58,4.58,0,0,1-1.37-1.47,4.43,4.43,0,0,1,0-4.21,4.58,4.58,0,0,1,1.37-1.47,6.13,6.13,0,0,1,1.82-.88A7.4,7.4,0,0,1,146.49,70Zm0,1.62a4.3,4.3,0,0,0-1.37.21,4,4,0,0,0-1.2.6,3.27,3.27,0,0,0-.87,1,2.75,2.75,0,0,0,0,2.64,3.15,3.15,0,0,0,.87,1,4.25,4.25,0,0,0,1.2.61,4.38,4.38,0,0,0,2.68,0A4.3,4.3,0,0,0,149,77a3.14,3.14,0,0,0,.87-1,2.75,2.75,0,0,0,0-2.64,3.39,3.39,0,0,0-.87-1,4,4,0,0,0-1.21-.6A4.13,4.13,0,0,0,146.49,71.6Z" style="fill:#fff"/><path id="Path_75" data-name="Path 75" d="M65.08,35c0,.69,0,1.37,0,2.15s.07,1.44.1,2,.06,1.46.1,2.17H41a16.72,16.72,0,0,0,.68-3.06c.18-1.15.3-2.32.4-3.51s.16-2.39.18-3.54,0-2.22,0-3.17V26.29c0-.75,0-1.6-.07-2.54s-.1-1.9-.18-2.91S41.8,18.89,41.7,18a21.63,21.63,0,0,0-.37-2.39,4.81,4.81,0,0,0-.52-1.52,15.26,15.26,0,0,0,1.9.18l2.82.1,3,.06H51a8.21,8.21,0,0,0-.87,2.74c-.21,1.23-.37,2.54-.49,3.91s-.19,2.7-.23,4,0,2.29,0,3,0,1.67,0,2.79.1,2.28.2,3.48.24,2.37.43,3.52a15.67,15.67,0,0,0,.68,2.94c1.37-.24,2.78-.53,4.28-.89a39.11,39.11,0,0,0,4.25-1.26A21,21,0,0,0,62.85,37a5.84,5.84,0,0,0,2.23-2Z" style="fill:#fff"/><path id="Path_76" data-name="Path 76" d="M90.3,23.16a6.93,6.93,0,0,0-.47,2.06c-.11.94-.21,2-.27,3.16s-.08,2.41,0,3.72.1,2.55.19,3.75a27.22,27.22,0,0,0,.47,3.26,8.24,8.24,0,0,0,.77,2.22c-.56,0-1.1,0-1.63,0l-1.58-.12A31,31,0,0,0,84,41.09c-1,.06-2,.13-2.94.24l-2.74.32a26.88,26.88,0,0,1-3.11.15,11,11,0,0,1-5.94-1.37A4.85,4.85,0,0,1,67.05,36a5.06,5.06,0,0,1,.57-2.56,4.9,4.9,0,0,1,1.53-1.67,7.13,7.13,0,0,1,2.22-1A23.51,23.51,0,0,1,74,30.12c.42-.08,1-.17,1.72-.28s1.5-.24,2.3-.4a23.92,23.92,0,0,0,2.43-.6,8.15,8.15,0,0,0,2.1-.91V26.8a8.7,8.7,0,0,0-.13-.87,3.62,3.62,0,0,0-1.26-1,15.74,15.74,0,0,0-2-.94A13.14,13.14,0,0,0,77,23.27a5.6,5.6,0,0,0-1.78-.15,1.47,1.47,0,0,0-.89.43,1.26,1.26,0,0,0-.34.91,7.4,7.4,0,0,0,.14,1.32,4.2,4.2,0,0,1,.08,1.37,1.72,1.72,0,0,1-.57,1.13,2.73,2.73,0,0,1-1.78.45,2.78,2.78,0,0,1-2-.66,2.52,2.52,0,0,1-.74-1.85,3.07,3.07,0,0,1,.64-2,4,4,0,0,1,1.65-1.16,8,8,0,0,1,2.26-.49,12.74,12.74,0,0,1,2.47,0,15.14,15.14,0,0,1,2.3.39q1.11.27,2.22.6c.75.21,1.47.4,2.17.57a14.35,14.35,0,0,0,2.15.34,6.78,6.78,0,0,0,1.56,0,9.3,9.3,0,0,0,1.29-.3,10.23,10.23,0,0,0,1.2-.46Zm-9,17.32c.27-.95.5-1.92.68-2.9s.32-2,.42-3.09.15-2.05.17-3.06,0-1.95,0-2.84a6.6,6.6,0,0,1-1.23.72,17.32,17.32,0,0,1-1.61.69l-1.53.59c-.48.18-.83.33-1.07.43a8.07,8.07,0,0,0-2.52,1.76,4.57,4.57,0,0,0-1.08,3.3,4.39,4.39,0,0,0,.64,2.4,4.66,4.66,0,0,0,1.7,1.6,6.09,6.09,0,0,0,2.47.69,8,8,0,0,0,3-.29Z" style="fill:#fff"/><path id="Path_77" data-name="Path 77" d="M101.81,15.14a11.67,11.67,0,0,0-.54,2.17c-.13.82-.24,1.66-.32,2.51s-.15,1.7-.17,2.54,0,1.57,0,2.23v1.62a7.31,7.31,0,0,1,1.18-1.37,9.21,9.21,0,0,1,1.7-1.21,9.73,9.73,0,0,1,2.15-.85,10.1,10.1,0,0,1,2.57-.31,13.42,13.42,0,0,1,4.57.73,10.15,10.15,0,0,1,3.51,2,9,9,0,0,1,3,6.78,11.18,11.18,0,0,1-.69,3.88,8.68,8.68,0,0,1-2,3.08A8.83,8.83,0,0,1,113.64,41a12.15,12.15,0,0,1-4.3.73,16.81,16.81,0,0,1-2.13-.14,11.76,11.76,0,0,1-1.95-.46,11,11,0,0,1-1.9-.81c-.62-.32-1.3-.68-2-1.16.12.36.23.73.32,1.1a3.61,3.61,0,0,0,.42,1.07H92.46a10.14,10.14,0,0,0,.74-2.81c.2-1.28.35-2.75.46-4.41s.19-3.37.2-5.17,0-3.5-.07-5.07a40.23,40.23,0,0,0-.34-4.1,5.28,5.28,0,0,0-.65-2.23,19.42,19.42,0,0,0,4.67-.85C98.89,16.27,100.33,15.74,101.81,15.14Zm9.49,16.92a7.91,7.91,0,0,0-3.43-6.39,5.29,5.29,0,0,0-3.42-.81,5.84,5.84,0,0,0-3.73,2.1c0,2,0,3.84.06,5.59a45.1,45.1,0,0,0,.43,5.56,4.44,4.44,0,0,0,3.06,1.37,6.2,6.2,0,0,0,3.28-.87A7.88,7.88,0,0,0,110.2,36,7.06,7.06,0,0,0,111.3,32.06Z" style="fill:#fff"/><path id="Path_78" data-name="Path 78" d="M140.31,40.84c1.4-.18,2.78-.42,4.15-.73a35,35,0,0,0,4.25-1.23,18.67,18.67,0,0,0,3.61-1.72A6.32,6.32,0,0,0,154.59,35c0,.69,0,1.37.06,2.15s.06,1.45.09,2,.07,1.46.1,2.17H130.43a15.74,15.74,0,0,0,.77-3c.17-1.15.3-2.32.39-3.53s.13-2.41.15-3.58,0-2.23,0-3.14V24.47c0-1.26-.08-2.51-.17-3.76a33.46,33.46,0,0,0-.48-3.6,15.84,15.84,0,0,0-.86-3.1,14.89,14.89,0,0,0,1.51.13c.68,0,1.47.08,2.4.1s1.93,0,3,.06l3.42.06q2.37,0,4.86.06h9.41l-.4,6.56a5.58,5.58,0,0,0-2.1-2.41,17.66,17.66,0,0,0-3.56-1.84,28,28,0,0,0-4.22-1.24,34.25,34.25,0,0,0-4.16-.64,16.39,16.39,0,0,0-.72,3c-.2,1.19-.35,2.41-.45,3.67s-.17,2.48-.22,3.64-.07,2.13-.07,2.89l1.78-.08a18.26,18.26,0,0,0,2-.14c.66-.06,1.29-.13,1.9-.22a6,6,0,0,0,1.51-.35,11.53,11.53,0,0,0,1.68-.76,6.89,6.89,0,0,0,1.43-1c-.07.76-.11,1.63-.14,2.61S149,30,149,30.84a7.69,7.69,0,0,0-2.92-1.58,13.84,13.84,0,0,0-1.58-.33c-.6-.1-1.22-.17-1.88-.22s-1.31-.1-2-.14-1.23-.09-1.75-.14c0,.74,0,1.65.07,2.74s.13,2.23.22,3.42.23,2.33.4,3.43a13.78,13.78,0,0,0,.67,2.82Z" style="fill:#fff"/><path id="Path_79" data-name="Path 79" d="M180.59,23.16a6.93,6.93,0,0,0-.47,2.06c-.11.94-.21,2-.27,3.16s-.08,2.41,0,3.72.1,2.55.19,3.75a27.22,27.22,0,0,0,.47,3.26,8.24,8.24,0,0,0,.77,2.22c-.56,0-1.1,0-1.63,0L178,41.17a31,31,0,0,0-3.73-.08c-1,.06-2,.13-2.94.24l-2.74.32a26.88,26.88,0,0,1-3.11.15,11,11,0,0,1-5.94-1.36A4.87,4.87,0,0,1,157.34,36a4.7,4.7,0,0,1,2.1-4.23,7,7,0,0,1,2.22-1,24,24,0,0,1,2.64-.6c.43-.08,1-.17,1.74-.28s1.49-.24,2.3-.4a24.41,24.41,0,0,0,2.42-.6,8.15,8.15,0,0,0,2.1-.91V26.81a5.23,5.23,0,0,0-.13-.87,3.54,3.54,0,0,0-1.25-1,15.78,15.78,0,0,0-2-1,12.22,12.22,0,0,0-2.15-.68,5.61,5.61,0,0,0-1.78-.16,1.47,1.47,0,0,0-.89.43,1.27,1.27,0,0,0-.35.91,6.53,6.53,0,0,0,.16,1.32,4.5,4.5,0,0,1,.07,1.37,1.72,1.72,0,0,1-.57,1.13,2.67,2.67,0,0,1-1.78.45A2.73,2.73,0,0,1,160.1,28a2.48,2.48,0,0,1-.74-1.84,3.07,3.07,0,0,1,.64-2A4,4,0,0,1,161.65,23a8,8,0,0,1,2.26-.49,13.61,13.61,0,0,1,2.47.08,14.73,14.73,0,0,1,2.3.39c.74.18,1.48.38,2.23.6s1.46.4,2.17.57a14,14,0,0,0,2.15.34,6.78,6.78,0,0,0,1.56,0,9.5,9.5,0,0,0,1.28-.3,11.59,11.59,0,0,0,1.21-.45Zm-9,17.32c.27-.95.5-1.92.68-2.9s.32-2,.42-3.09.15-2.05.17-3.06,0-1.95,0-2.84a6.6,6.6,0,0,1-1.23.72A17.32,17.32,0,0,1,170,30l-1.54.6c-.48.18-.84.33-1.07.44a7.88,7.88,0,0,0-2.52,1.75,4.62,4.62,0,0,0-1.09,3.3,4.32,4.32,0,0,0,.65,2.4,4.66,4.66,0,0,0,1.7,1.6,6,6,0,0,0,2.47.69,7.81,7.81,0,0,0,3-.3Z" style="fill:#fff"/><path id="Path_80" data-name="Path 80" d="M193.08,20.54c-.08,1.76-.11,3.54-.09,5.3s0,3.24,0,4.42v2.63a19.74,19.74,0,0,0,.35,3.42,9.51,9.51,0,0,0,1.1,3.06A3.1,3.1,0,0,0,196.79,41a6.53,6.53,0,0,1-1.91.69,11,11,0,0,1-2.21.23,9.07,9.07,0,0,1-3.64-.69,7.24,7.24,0,0,1-2.56-1.74A6.87,6.87,0,0,1,185,36.87a9.71,9.71,0,0,1-.49-3.16c0-1.8,0-3.59.08-5.36s.09-3.55.09-5.35v-.81a2.87,2.87,0,0,0-.18-.82,1.44,1.44,0,0,0-.49-.63,1.72,1.72,0,0,0-1-.25V20a8.71,8.71,0,0,0,3.34-.68,16,16,0,0,0,2.74-1.53c.85-.6,1.69-1.26,2.5-2A18.67,18.67,0,0,1,194.18,14a12.8,12.8,0,0,0-.69,2.74c-.15,1-.27,2.12-.35,3.3h4.43v.52Z" style="fill:#fff"/><path id="Path_81" data-name="Path 81" d="M130.33,60.64v-.15h0a10.92,10.92,0,0,0-21.83,0h0v.15h0v.15h21.84v-.15Zm-2.23-3.57a.38.38,0,0,1-.26.46.39.39,0,0,1-.47-.26.37.37,0,0,1,.09-.35.32.32,0,0,1,.27-.11.36.36,0,0,1,.28.11.26.26,0,0,1,.08.13Zm-2,1.24a1,1,0,0,1,.44,1.38.42.42,0,0,1-.09.14,3.22,3.22,0,0,0-.2.69h-3.62a3.65,3.65,0,0,0-.18-.93l3.46-1.42Zm-15,2.18a8.29,8.29,0,0,1,.56-2.83l1,.41-.07.07a1.75,1.75,0,0,0-.6.81,1.72,1.72,0,0,0,.2,1,2.21,2.21,0,0,1,.17.57Zm-.4-3.37h0a.4.4,0,0,1,.36-.23.4.4,0,0,1,0,.79.4.4,0,0,1-.39-.39.47.47,0,0,1,0-.17Zm.37-.57h-.12a9.5,9.5,0,0,1,1.87-2.62v.12a.69.69,0,0,0,.55.46,8.39,8.39,0,0,0-1.7,2.4.68.68,0,0,0-.59-.35Zm10.63-5,.08,0a.37.37,0,0,1,.15.25.39.39,0,0,1-.32.45h0a.38.38,0,0,1-.29-.07.38.38,0,0,1-.08-.55.37.37,0,0,1,.26-.15h.1Zm3.94,2.39a.38.38,0,0,1-.2.23.37.37,0,0,1-.29,0h0a.43.43,0,0,1-.23-.19.39.39,0,0,1,0-.3.33.33,0,0,1,.2-.23.34.34,0,0,1,.18,0h.12a.21.21,0,0,1,.1.06l.07.06a.38.38,0,0,1,.07.41Zm-4,5.48-.28.11.06.17-.23.1a1.77,1.77,0,0,0-.36-.5l.16-.19.12.1.2-.24-.12-.1.23-.28a2.55,2.55,0,0,1,.63.86l-.34.13Zm-4.44,0-.06.11-.34-.14a3.13,3.13,0,0,1,.63-.86l.23.28-.14.13.2.22.14-.11.16.18a2.24,2.24,0,0,0-.36.51l-.24-.1.06-.13Zm-5.42-2.06a8.3,8.3,0,0,1,2.11-2.93l.78.9-.27.09a1.61,1.61,0,0,0-.89.47,1.69,1.69,0,0,0-.26,1,2,2,0,0,1-.13.73,1.31,1.31,0,0,1-.17.24Zm1.37-3.7a.34.34,0,0,1,.12-.12h0a.39.39,0,0,1,.19-.06.41.41,0,0,1,.39.41.29.29,0,0,1,0,.16.32.32,0,0,1-.23.19.39.39,0,0,1-.3,0,.35.35,0,0,1-.19-.22.38.38,0,0,1,0-.37Zm.68-.44-.11,0a9.29,9.29,0,0,1,3-1.54.37.37,0,0,0,0,.11.72.72,0,0,0,.26.67,8.4,8.4,0,0,0-2.7,1.41.71.71,0,0,0-.38-.63Zm3.47-1.73h.1a.39.39,0,0,1,.26.16.4.4,0,0,1-.1.55.41.41,0,0,1-.55-.1.38.38,0,0,1-.06-.29.39.39,0,0,1,.16-.26h.07Zm3.93,1-.29,1.25a2.39,2.39,0,0,1-.56-.32,1.27,1.27,0,0,0-1.87,0,2,2,0,0,1-.57.32l-.31-1.25a8,8,0,0,1,1.82-.2,7.8,7.8,0,0,1,1.8.18Zm-.4,6-.2.24.15.11-.17.2a2,2,0,0,0-.56-.29l.06-.24h.15l.07-.3h-.14l.08-.34a2.75,2.75,0,0,1,.93.48l-.22.26Zm-2.74.35.12-.1-.2-.23-.12.1-.23-.26a3,3,0,0,1,.94-.49l.08.35-.18,0,.08.3.18,0,.06.24a2.29,2.29,0,0,0-.56.29Zm-.77-6.26.3,1.22a4.23,4.23,0,0,1-.5,0,1.22,1.22,0,0,0-1.6.68l0,.12a1.87,1.87,0,0,1-.42.59l-.1.05-.83-1a8.37,8.37,0,0,1,3.22-1.65Zm-2.13,2.74a2.2,2.2,0,0,0,.48-.69,1.61,1.61,0,0,1,.56-.68,1.4,1.4,0,0,1,.86,0,3.8,3.8,0,0,0,.58.06l.86,3.52a3.3,3.3,0,0,0-1.07.55l-2.36-2.73Zm3.7,3.73.24,1-.68-.77a1.45,1.45,0,0,1,.46-.24Zm.3-.07h.48l-.24,1Zm.78.07a1.94,1.94,0,0,1,.43.22l-.69.78Zm-.08-.89-.18,0-.08.29.19,0-.06.25a1.67,1.67,0,0,0-.63,0l-.06-.25h.15l-.07-.3-.15,0-.09-.35a2.7,2.7,0,0,1,1.06,0Zm-.44-.69a2.4,2.4,0,0,0-.6.07l-.85-3.5a2.51,2.51,0,0,0,.64-.36,1.07,1.07,0,0,1,1.5-.11,1.14,1.14,0,0,1,.11.11,2.22,2.22,0,0,0,.64.35L120,57.5a3.05,3.05,0,0,0-.6-.06Zm-6.16.26a2.24,2.24,0,0,0,.15-.81,1,1,0,0,1,1-1.23l.39-.13,2.4,2.8a3,3,0,0,0-.68,1L113.11,58a1.49,1.49,0,0,0,.18-.3Zm4.93,1.79.68.78-1-.39a1.6,1.6,0,0,1,.32-.45Zm2.4,0a2.14,2.14,0,0,1,.28.39l-1,.39Zm1-1.16,2.4-2.8a3.17,3.17,0,0,0,.4.14,1.56,1.56,0,0,1,.78.39,1.44,1.44,0,0,1,.2.84,2.76,2.76,0,0,0,.15.8l.14.22-3.36,1.36a3.14,3.14,0,0,0-.66-1Zm-.23-.2a3.2,3.2,0,0,0-1.07-.55l.85-3.53a4,4,0,0,0,.6-.05,1.37,1.37,0,0,1,.85,0,1.55,1.55,0,0,1,.56.68,2.2,2.2,0,0,0,.48.69l.08,0Zm2.42-3a2.08,2.08,0,0,1-.43-.59,1.8,1.8,0,0,0-.65-.77,1.7,1.7,0,0,0-1,0,4.4,4.4,0,0,1-.51,0l.3-1.22a8.31,8.31,0,0,1,3.2,1.63l-.83,1Zm1.26-2h-.1a.69.69,0,0,0-.35.4.81.81,0,0,0,0,.22A8.53,8.53,0,0,0,122,52.44a.71.71,0,0,0,.27-.65.35.35,0,0,0,0-.13,9.48,9.48,0,0,1,2.89,1.46Zm-4.11-1.66a.62.62,0,0,0,0,.72,8.48,8.48,0,0,0-1.51-.14,9.27,9.27,0,0,0-1.49.13.66.66,0,0,0,0-.68l-.1-.09a9,9,0,0,1,1.64-.15,9.21,9.21,0,0,1,1.65.15h0Zm-8.57,8.36a1.49,1.49,0,0,1-.18-.83,1.4,1.4,0,0,1,.54-.68l.15-.14,3.58,1.31a2.78,2.78,0,0,0-.18.91h-3.61a2.8,2.8,0,0,0-.23-.63Zm4.29-.13.32.13-.07.18.29.12.07-.18.23.1a1.63,1.63,0,0,0-.08.45h-.93a2.57,2.57,0,0,1,.24-.86Zm1.12.46.81.33h-.88a1.42,1.42,0,0,1,.12-.4Zm3.2,0a1.28,1.28,0,0,1,.07.34h-.89Zm.28-.11.24-.1.06.14.28-.12-.06-.14.32-.13a2.49,2.49,0,0,1,.17.8h-.92a1.89,1.89,0,0,0,0-.53Zm4.61-2.23a1.07,1.07,0,0,1-.15-.22,2,2,0,0,1-.14-.72,1.24,1.24,0,0,0-1-1.42h-.11l-.31-.1.78-.91A8.19,8.19,0,0,1,127,57.4Zm1.85-1.31h0a.68.68,0,0,0-.49.2.57.57,0,0,0-.12.18,8.63,8.63,0,0,0-1.74-2.4l.18-.07a.68.68,0,0,0,.36-.4V54a9.44,9.44,0,0,1,1.91,2.64.3.3,0,0,0,0-.1Zm-17.25,1.15a.64.64,0,0,0,.77.26,8.37,8.37,0,0,0-.44,2.58H110a9.1,9.1,0,0,1,.55-2.92Zm16,2.84a2.73,2.73,0,0,1,.19-.57,1.82,1.82,0,0,0,.19-1,1.78,1.78,0,0,0-.61-.82l-.1-.09,1-.42a8.29,8.29,0,0,1,.57,2.87Zm1.09-2.64a.65.65,0,0,0,.69-.15.61.61,0,0,0,.07-.1,9.51,9.51,0,0,1,.51,2.9h-.81a8.56,8.56,0,0,0-.4-2.71Z" style="fill:#fff"/></g></g></g></svg>