<svg xmlns="http://www.w3.org/2000/svg" viewBox="0 0 297.12 121.07"><g id="Layer_2" data-name="Layer 2"><g id="Layer_1-2" data-name="Layer 1"><g id="Group_163" data-name="Group 163"><path id="Path_197" data-name="Path 197" d="M280.42,115.1H17v-.34a8.54,8.54,0,0,0-8.52-8.53H8.1V14.73h.35A8.53,8.53,0,0,0,17,6.21V5.87H280.42v.34a8.52,8.52,0,0,0,8.52,8.52h.35v91.5h-.35a8.54,8.54,0,0,0-8.52,8.53Zm-262.77-.69H279.74a9.23,9.23,0,0,1,8.86-8.86V15.42a9.24,9.24,0,0,1-8.86-8.87H17.65a9.23,9.23,0,0,1-8.86,8.87v90.13a9.23,9.23,0,0,1,8.86,8.86Z" style="fill:#455336;stroke:#455336;stroke-miterlimit:10"/><g id="Group_83" data-name="Group 83"><rect id="Rectangle_159" data-name="Rectangle 159" x="296.16" y="27.15" width="0.46" height="1.98" style="fill:#455336;stroke:#455336;stroke-miterlimit:10"/><rect id="Rectangle_160" data-name="Rectangle 160" x="296.16" y="51.45" width="0.46" height="1.97" style="fill:#455336;stroke:#455336;stroke-miterlimit:10"/><rect id="Rectangle_161" data-name="Rectangle 161" x="296.16" y="67.64" width="0.46" height="1.98" style="fill:#455336;stroke:#455336;stroke-miterlimit:10"/><rect id="Rectangle_162" data-name="Rectangle 162" x="296.16" y="91.95" width="0.46" height="1.97" style="fill:#455336;stroke:#455336;stroke-miterlimit:10"/><rect id="Rectangle_163" data-name="Rectangle 163" x="0.5" y="91.95" width="0.46" height="1.97" style="fill:#455336;stroke:#455336;stroke-miterlimit:10"/><rect id="Rectangle_164" data-name="Rectangle 164" x="0.5" y="67.64" width="0.46" height="1.98" style="fill:#455336;stroke:#455336;stroke-miterlimit:10"/><rect id="Rectangle_165" data-name="Rectangle 165" x="0.5" y="51.45" width="0.46" height="1.97" style="fill:#455336;stroke:#455336;stroke-miterlimit:10"/><rect id="Rectangle_166" data-name="Rectangle 166" x="0.5" y="27.15" width="0.46" height="1.98" style="fill:#455336;stroke:#455336;stroke-miterlimit:10"/><path id="Path_198" data-name="Path 198" d="M286.35,120.57H10.76v-.23a10,10,0,0,0-10-10H.5v-6H.73A3.67,3.67,0,1,0,.73,97H.5V90.88H.73a3.67,3.67,0,0,0,0-7.34H.5v-6.1H.73a3.67,3.67,0,0,0,3.61-3.73A3.68,3.68,0,0,0,.73,70.1H.5V64H.73a3.67,3.67,0,0,0,0-7.34H.5V50.58H.73a3.68,3.68,0,0,0,0-7.35H.5V37.14H.73a3.67,3.67,0,0,0,0-7.34H.5V23.71H.73a3.67,3.67,0,0,0,0-7.34H.5V10.73H.73a10,10,0,0,0,10-10V.5H286.35V.73a10,10,0,0,0,10,10h.23v5.65h-.23a3.67,3.67,0,0,0,0,7.34h.23V29.8h-.23a3.67,3.67,0,0,0,0,7.34h.23v6.09h-.23a3.67,3.67,0,0,0,0,7.34h.23v6.1h-.23a3.67,3.67,0,1,0,0,7.34h.23V70.1h-.23a3.67,3.67,0,0,0,0,7.34h.23v6.1h-.23a3.67,3.67,0,0,0,0,7.34h.23V97h-.23a3.67,3.67,0,1,0,0,7.34h.23v6h-.23a10,10,0,0,0-10,10Zm-275.13-.46H285.9a10.49,10.49,0,0,1,10.26-10.22v-5.12a4.13,4.13,0,0,1,0-8.25V91.33a4.13,4.13,0,0,1,0-8.25V77.9a4.13,4.13,0,0,1,0-8.25V64.47a4.13,4.13,0,0,1,0-8.25V51a4.13,4.13,0,0,1,0-8.25V37.6a4.13,4.13,0,0,1,0-8.25V24.17a4.13,4.13,0,0,1,0-8.25V11.18A10.47,10.47,0,0,1,285.9,1H11.22A10.47,10.47,0,0,1,1,11.18v4.74a4.13,4.13,0,0,1,3.89,4.35A4.14,4.14,0,0,1,1,24.17v5.18A4.13,4.13,0,0,1,1,37.6v5.19A4.13,4.13,0,0,1,1,51v5.19a4.13,4.13,0,0,1,0,8.25v5.19A4.11,4.11,0,0,1,4.85,74,4.13,4.13,0,0,1,1,77.9v5.19a4.13,4.13,0,0,1,3.89,4.35A4.14,4.14,0,0,1,1,91.34v5.18a4.13,4.13,0,0,1,0,8.25v5.13a10.47,10.47,0,0,1,10.26,10.21Z" style="fill:#455336;stroke:#455336;stroke-miterlimit:10"/></g></g></g></g></svg>